<svg xmlns="http://www.w3.org/2000/svg" viewBox="0 0 1200 630" width="1200" height="630">
<defs>
  <pattern id="grid" width="34" height="34" patternUnits="userSpaceOnUse">
    <path d="M34 0H0V34" fill="none" stroke="#d2cdc2" stroke-width="1" opacity="0.5"></path>
  </pattern>
</defs>
<rect width="1200" height="630" fill="#f1eee7"></rect>
<rect width="1200" height="630" fill="url(#grid)"></rect>
<rect x="28" y="28" width="1144" height="574" fill="none" stroke="#d2cdc2" stroke-width="1.5"></rect>

<g stroke="#17191c" stroke-width="2">
  <path d="M28 60 H52 M60 28 V52"></path>
  <path d="M1172 570 H1148 M1140 602 V578"></path>
</g>
<text x="60" y="78" font-family="&#39;Spline Sans Mono&#39;,monospace" font-size="15" letter-spacing="3" fill="#4a4d52">FIG.02 — BOUNDARY</text>
<g><line x1="300" y1="150" x2="300" y2="250" stroke="#d2cdc2" stroke-width="1.5"></line><line x1="300" y1="150" x2="400" y2="150" stroke="#d2cdc2" stroke-width="1.5"></line><line x1="300" y1="150" x2="400" y2="250" stroke="#d2cdc2" stroke-width="1.5"></line><line x1="300" y1="250" x2="300" y2="350" stroke="#d2cdc2" stroke-width="1.5"></line><line x1="300" y1="250" x2="400" y2="150" stroke="#d2cdc2" stroke-width="1.5"></line><line x1="300" y1="250" x2="400" y2="250" stroke="#d2cdc2" stroke-width="1.5"></line><line x1="300" y1="250" x2="400" y2="350" stroke="#d2cdc2" stroke-width="1.5"></line><line x1="300" y1="350" x2="300" y2="450" stroke="#d2cdc2" stroke-width="1.5"></line><line x1="300" y1="350" x2="400" y2="250" stroke="#d2cdc2" stroke-width="1.5"></line><line x1="300" y1="350" x2="400" y2="350" stroke="#d2cdc2" stroke-width="1.5"></line><line x1="300" y1="350" x2="400" y2="450" stroke="#d2cdc2" stroke-width="1.5"></line><line x1="300" y1="450" x2="400" y2="350" stroke="#d2cdc2" stroke-width="1.5"></line><line x1="300" y1="450" x2="400" y2="450" stroke="#d2cdc2" stroke-width="1.5"></line><line x1="400" y1="150" x2="400" y2="250" stroke="#d2cdc2" stroke-width="1.5"></line><line x1="400" y1="150" x2="500" y2="150" stroke="#d2cdc2" stroke-width="1.5"></line><line x1="400" y1="150" x2="500" y2="250" stroke="#d2cdc2" stroke-width="1.5"></line><line x1="400" y1="250" x2="400" y2="350" stroke="#d2cdc2" stroke-width="1.5"></line><line x1="400" y1="250" x2="500" y2="150" stroke="#d2cdc2" stroke-width="1.5"></line><line x1="400" y1="250" x2="500" y2="250" stroke="#d2cdc2" stroke-width="1.5"></line><line x1="400" y1="250" x2="500" y2="350" stroke="#d2cdc2" stroke-width="1.5"></line><line x1="400" y1="350" x2="400" y2="450" stroke="#d2cdc2" stroke-width="1.5"></line><line x1="400" y1="350" x2="500" y2="250" stroke="#d2cdc2" stroke-width="1.5"></line><line x1="400" y1="350" x2="500" y2="350" stroke="#d2cdc2" stroke-width="1.5"></line><line x1="400" y1="350" x2="500" y2="450" stroke="#d2cdc2" stroke-width="1.5"></line><line x1="400" y1="450" x2="500" y2="350" stroke="#d2cdc2" stroke-width="1.5"></line><line x1="400" y1="450" x2="500" y2="450" stroke="#d2cdc2" stroke-width="1.5"></line><line x1="500" y1="150" x2="500" y2="250" stroke="#d2cdc2" stroke-width="1.5"></line><line x1="500" y1="150" x2="600" y2="150" stroke="#d2cdc2" stroke-width="1.5"></line><line x1="500" y1="150" x2="600" y2="250" stroke="#d2cdc2" stroke-width="1.5"></line><line x1="500" y1="250" x2="500" y2="350" stroke="#d2cdc2" stroke-width="1.5"></line><line x1="500" y1="250" x2="600" y2="150" stroke="#d2cdc2" stroke-width="1.5"></line><line x1="500" y1="250" x2="600" y2="250" stroke="#d2cdc2" stroke-width="1.5"></line><line x1="500" y1="250" x2="600" y2="350" stroke="#d2cdc2" stroke-width="1.5"></line><line x1="500" y1="350" x2="500" y2="450" stroke="#d2cdc2" stroke-width="1.5"></line><line x1="500" y1="350" x2="600" y2="250" stroke="#d2cdc2" stroke-width="1.5"></line><line x1="500" y1="350" x2="600" y2="350" stroke="#d2cdc2" stroke-width="1.5"></line><line x1="500" y1="350" x2="600" y2="450" stroke="#d2cdc2" stroke-width="1.5"></line><line x1="500" y1="450" x2="600" y2="350" stroke="#d2cdc2" stroke-width="1.5"></line><line x1="500" y1="450" x2="600" y2="450" stroke="#d2cdc2" stroke-width="1.5"></line><line x1="600" y1="150" x2="600" y2="250" stroke="#d2cdc2" stroke-width="1.5"></line><line x1="600" y1="150" x2="700" y2="150" stroke="#d2cdc2" stroke-width="1.5"></line><line x1="600" y1="150" x2="700" y2="250" stroke="#d2cdc2" stroke-width="1.5"></line><line x1="600" y1="250" x2="600" y2="350" stroke="#d2cdc2" stroke-width="1.5"></line><line x1="600" y1="250" x2="700" y2="150" stroke="#d2cdc2" stroke-width="1.5"></line><line x1="600" y1="250" x2="700" y2="250" stroke="#d2cdc2" stroke-width="1.5"></line><line x1="600" y1="250" x2="700" y2="350" stroke="#d2cdc2" stroke-width="1.5"></line><line x1="600" y1="350" x2="600" y2="450" stroke="#d2cdc2" stroke-width="1.5"></line><line x1="600" y1="350" x2="700" y2="250" stroke="#d2cdc2" stroke-width="1.5"></line><line x1="600" y1="350" x2="700" y2="350" stroke="#d2cdc2" stroke-width="1.5"></line><line x1="600" y1="350" x2="700" y2="450" stroke="#d2cdc2" stroke-width="1.5"></line><line x1="600" y1="450" x2="700" y2="350" stroke="#d2cdc2" stroke-width="1.5"></line><line x1="600" y1="450" x2="700" y2="450" stroke="#d2cdc2" stroke-width="1.5"></line><line x1="700" y1="150" x2="700" y2="250" stroke="#d2cdc2" stroke-width="1.5"></line><line x1="700" y1="150" x2="800" y2="150" stroke="#d2cdc2" stroke-width="1.5"></line><line x1="700" y1="150" x2="800" y2="250" stroke="#d2cdc2" stroke-width="1.5"></line><line x1="700" y1="250" x2="700" y2="350" stroke="#d2cdc2" stroke-width="1.5"></line><line x1="700" y1="250" x2="800" y2="150" stroke="#d2cdc2" stroke-width="1.5"></line><line x1="700" y1="250" x2="800" y2="250" stroke="#d2cdc2" stroke-width="1.5"></line><line x1="700" y1="250" x2="800" y2="350" stroke="#d2cdc2" stroke-width="1.5"></line><line x1="700" y1="350" x2="700" y2="450" stroke="#d2cdc2" stroke-width="1.5"></line><line x1="700" y1="350" x2="800" y2="250" stroke="#d2cdc2" stroke-width="1.5"></line><line x1="700" y1="350" x2="800" y2="350" stroke="#d2cdc2" stroke-width="1.5"></line><line x1="700" y1="350" x2="800" y2="450" stroke="#d2cdc2" stroke-width="1.5"></line><line x1="700" y1="450" x2="800" y2="350" stroke="#d2cdc2" stroke-width="1.5"></line><line x1="700" y1="450" x2="800" y2="450" stroke="#d2cdc2" stroke-width="1.5"></line><line x1="800" y1="150" x2="800" y2="250" stroke="#d2cdc2" stroke-width="1.5"></line><line x1="800" y1="150" x2="900" y2="150" stroke="#d2cdc2" stroke-width="1.5"></line><line x1="800" y1="150" x2="900" y2="250" stroke="#d2cdc2" stroke-width="1.5"></line><line x1="800" y1="250" x2="800" y2="350" stroke="#d2cdc2" stroke-width="1.5"></line><line x1="800" y1="250" x2="900" y2="150" stroke="#d2cdc2" stroke-width="1.5"></line><line x1="800" y1="250" x2="900" y2="250" stroke="#d2cdc2" stroke-width="1.5"></line><line x1="800" y1="250" x2="900" y2="350" stroke="#d2cdc2" stroke-width="1.5"></line><line x1="800" y1="350" x2="800" y2="450" stroke="#d2cdc2" stroke-width="1.5"></line><line x1="800" y1="350" x2="900" y2="250" stroke="#d2cdc2" stroke-width="1.5"></line><line x1="800" y1="350" x2="900" y2="350" stroke="#d2cdc2" stroke-width="1.5"></line><line x1="800" y1="350" x2="900" y2="450" stroke="#d2cdc2" stroke-width="1.5"></line><line x1="800" y1="450" x2="900" y2="350" stroke="#d2cdc2" stroke-width="1.5"></line><line x1="800" y1="450" x2="900" y2="450" stroke="#d2cdc2" stroke-width="1.5"></line><line x1="900" y1="150" x2="900" y2="250" stroke="#d2cdc2" stroke-width="1.5"></line><line x1="900" y1="250" x2="900" y2="350" stroke="#d2cdc2" stroke-width="1.5"></line><line x1="900" y1="350" x2="900" y2="450" stroke="#d2cdc2" stroke-width="1.5"></line><circle cx="300" cy="150" r="6" fill="#4a4d52"></circle><circle cx="300" cy="250" r="6" fill="#4a4d52"></circle><circle cx="300" cy="350" r="6" fill="#4a4d52"></circle><circle cx="300" cy="450" r="6" fill="#4a4d52"></circle><circle cx="400" cy="150" r="6" fill="#4a4d52"></circle><circle cx="400" cy="250" r="6" fill="#4a4d52"></circle><circle cx="400" cy="350" r="6" fill="#4a4d52"></circle><circle cx="400" cy="450" r="6" fill="#4a4d52"></circle><circle cx="500" cy="150" r="6" fill="#4a4d52"></circle><circle cx="500" cy="250" r="6" fill="#4a4d52"></circle><circle cx="500" cy="350" r="6" fill="#4a4d52"></circle><circle cx="500" cy="450" r="6" fill="#4a4d52"></circle><circle cx="600" cy="150" r="6" fill="#4a4d52"></circle><circle cx="600" cy="250" r="6" fill="#4a4d52"></circle><circle cx="600" cy="350" r="6" fill="#4a4d52"></circle><circle cx="600" cy="450" r="6" fill="#4a4d52"></circle><circle cx="700" cy="150" r="6" fill="#4a4d52"></circle><circle cx="700" cy="250" r="6" fill="#4a4d52"></circle><circle cx="700" cy="350" r="6" fill="#4a4d52"></circle><circle cx="700" cy="450" r="6" fill="#4a4d52"></circle><circle cx="800" cy="150" r="6" fill="#4a4d52"></circle><circle cx="800" cy="250" r="6" fill="#4a4d52"></circle><circle cx="800" cy="350" r="6" fill="#4a4d52"></circle><circle cx="800" cy="450" r="6" fill="#4a4d52"></circle><circle cx="900" cy="150" r="6" fill="#4a4d52"></circle><circle cx="900" cy="250" r="6" fill="#4a4d52"></circle><circle cx="900" cy="350" r="6" fill="#4a4d52"></circle><circle cx="900" cy="450" r="6" fill="#4a4d52"></circle>
  <rect x="372" y="222" width="256" height="256" rx="14" fill="#dfeae7" fill-opacity="0.7" stroke="#0c7b72" stroke-width="3"></rect>
  <g fill="#0c7b72">
    <circle cx="400" cy="250" r="8"></circle><circle cx="500" cy="250" r="8"></circle><circle cx="600" cy="250" r="8"></circle>
    <circle cx="400" cy="350" r="8"></circle><circle cx="500" cy="350" r="11" stroke="#0a5b55" stroke-width="3"></circle><circle cx="600" cy="350" r="8"></circle>
    <circle cx="400" cy="450" r="8"></circle><circle cx="500" cy="450" r="8"></circle><circle cx="600" cy="450" r="8"></circle>
  </g>
  <text x="392" y="210" font-family="&#39;Spline Sans Mono&#39;,monospace" font-size="14" letter-spacing="2" fill="#0a5b55">AUTH BOUNDARY</text>
</g>
</svg>